<svg width="24" height="24" focusable="false">
  <path
    d="M18.4 18.2v-.6c-.5.8-1.3 1.2-2.4 1.2-2.2 0-3.3-1.6-3.3-4.8 0-3.1 1-4.7 3.3-4.7 1.1 0 1.8.3 2.4 1.1v-.6c0-.5.4-.8.8-.8s.8.3.8.8v8.4c0 .5-.4.8-.8.8a.8.8 0 0 1-.8-.8zm-2-7.4c-1.3 0-1.8.9-1.8 3.2 0 2.4.5 3.3 1.7 3.3 1.3 0 1.8-.9 1.8-3.2 0-2.4-.5-3.3-1.7-3.3zM10 15.7H5.5l-.8 2.6a1 1 0 0 1-1 .7h-.2a.7.7 0 0 1-.7-1l4-12a1 1 0 0 1 2 0l4 12a.7.7 0 0 1-.8 1h-.2a1 1 0 0 1-1-.7l-.8-2.6zm-.3-1.5-2-6.5-1.9 6.5h3.9z"
    fill-rule="evenodd"></path>
</svg>
