<svg width="24" height="24">
  <path
    d="M11 17h8c.6 0 1 .4 1 1s-.4 1-1 1h-8a1 1 0 010-2zm0-6h8c.6 0 1 .4 1 1s-.4 1-1 1h-8a1 1 0 010-2zm0-6h8a1 1 0 010 2h-8a1 1 0 010-2zM7.2 16c.2-.4.6-.5.9-.3.3.2.4.6.2 1L6 20c-.2.3-.7.4-1 0l-1.3-1.3a.7.7 0 010-1c.3-.2.7-.2 1 0l.7.9 1.7-2.8zm0-6c.2-.4.6-.5.9-.3.3.2.4.6.2 1L6 14c-.2.3-.7.4-1 0l-1.3-1.3a.7.7 0 010-1c.3-.2.7-.2 1 0l.7.9 1.7-2.8zm0-6c.2-.4.6-.5.9-.3.3.2.4.6.2 1L6 8c-.2.3-.7.4-1 0L3.8 6.9a.7.7 0 010-1c.3-.2.7-.2 1 0l.7.9 1.7-2.8z"
    fill-rule="evenodd" />
</svg>
